# Blender 4.3.0
# www.blender.org
o Cube
v 1.090724 -0.739085 -0.624160
v 1.183078 -2.054018 -0.624160
v 1.090724 -0.739085 0.624160
v 1.183078 -2.054018 0.624160
v 0.000000 -0.739085 -0.624160
v 0.000000 -2.054018 -0.624160
v 0.000000 -0.739085 0.624160
v 0.000000 -2.054018 0.624160
v 0.000000 -2.054018 -0.624160
v 0.000000 -2.054018 0.624160
v 1.183078 -2.054018 -0.624160
v 1.183078 -2.054018 0.624160
v 0.871637 -3.624948 -0.394684
v 0.871637 -3.624948 0.134890
v 1.500858 -3.624948 -0.394684
v 1.500858 -3.624948 0.134890
v 0.971561 -5.288386 -0.660997
v 0.971561 -5.288386 0.216544
v 1.479787 -5.288386 -0.660997
v 1.479787 -5.288386 0.216544
v 1.757373 1.243977 0.624160
v 0.000000 1.359419 1.065022
v 1.757373 1.243977 -0.899023
v 0.000000 1.359419 -0.979565
v 1.757373 2.435123 0.624160
v 0.000000 2.435123 1.065022
v 1.757373 2.435123 -0.899023
v 0.000000 2.435123 -0.979565
v 2.833076 1.359419 -0.530050
v 2.833076 1.359419 0.214872
v 2.513638 1.962864 -0.624160
v 2.513638 1.962864 0.624160
v 2.180010 -0.633278 -0.509938
v 2.180010 -0.633278 0.140009
v 2.833076 -0.633278 -0.509938
v 2.833076 -0.633278 0.140009
v 1.921900 -2.625974 -0.051845
v 1.921900 -2.625974 0.433232
v 2.381571 -2.625974 -0.051845
v 2.381571 -2.625974 0.433232
v 0.591539 -2.054018 -0.624160
v 0.402555 -0.739085 0.624160
v 0.591539 -2.054018 0.624160
v 0.402555 -0.739085 -0.624160
v 0.591539 -2.054018 -0.624160
v 0.591539 -2.054018 0.624160
v 1.176209 -3.624948 -0.394684
v 1.176209 -3.624948 0.134890
v 1.176209 -5.288386 -0.660997
v 1.176209 -5.288386 0.216544
v 0.878686 1.359419 1.065022
v 0.878686 1.359419 -1.225866
v 0.878686 2.435123 1.065022
v 0.878686 2.435123 -0.979565
v 0.878686 2.937216 0.624160
v 0.000000 2.937216 0.624160
v 0.000000 2.937216 -0.624160
v 0.878686 2.937216 -0.624160
v 1.194734 3.206632 0.683982
v 0.000000 3.206632 1.186508
v 0.000000 3.206632 -1.073157
v 1.194734 3.206632 -0.702040
v 0.746127 4.884357 0.612995
v 0.000000 4.884357 0.612995
v 0.000000 4.884357 -0.604040
v 0.746127 4.884357 -0.604040
v 0.000000 0.310167 -0.801862
v 1.290114 0.310167 -0.624160
v 1.290114 0.310167 0.624160
v 0.000000 0.310167 0.844591
v 0.640621 0.310167 0.844591
v 0.640621 0.310167 -0.801862
v 1.194734 4.397810 -0.702040
v 1.194734 4.397810 0.683982
v 0.000000 4.397810 1.186508
v 0.000000 4.397810 -1.073157
v -1.090724 -0.739085 -0.624160
v -1.183078 -2.054018 -0.624160
v -1.090724 -0.739085 0.624160
v -1.183078 -2.054018 0.624160
v -1.183078 -2.054018 -0.624160
v -1.183078 -2.054018 0.624160
v -0.871637 -3.624948 -0.394684
v -0.871637 -3.624948 0.134890
v -1.500858 -3.624948 -0.394684
v -1.500858 -3.624948 0.134890
v -0.971561 -5.288386 -0.660997
v -0.971561 -5.288386 0.216544
v -1.479787 -5.288386 -0.660997
v -1.479787 -5.288386 0.216544
v -1.757373 1.243977 0.624160
v -1.757373 1.243977 -0.899023
v -1.757373 2.435123 0.624160
v -1.757373 2.435123 -0.899023
v -2.833076 1.359419 -0.530050
v -2.833076 1.359419 0.214872
v -2.513638 1.962864 -0.624160
v -2.513638 1.962864 0.624160
v -2.180010 -0.633278 -0.509938
v -2.180010 -0.633278 0.140009
v -2.833076 -0.633278 -0.509938
v -2.833076 -0.633278 0.140009
v -1.921900 -2.625974 -0.051845
v -1.921900 -2.625974 0.433232
v -2.381571 -2.625974 -0.051845
v -2.381571 -2.625974 0.433232
v -0.591539 -2.054018 -0.624160
v -0.402555 -0.739085 0.624160
v -0.591539 -2.054018 0.624160
v -0.402555 -0.739085 -0.624160
v -0.591539 -2.054018 -0.624160
v -0.591539 -2.054018 0.624160
v -1.176209 -3.624948 -0.394684
v -1.176209 -3.624948 0.134890
v -1.176209 -5.288386 -0.660997
v -1.176209 -5.288386 0.216544
v -0.878686 1.359419 1.065022
v -0.878686 1.359419 -1.225866
v -0.878686 2.435123 1.065022
v -0.878686 2.435123 -0.979565
v -0.878686 2.937216 0.624160
v -0.878686 2.937216 -0.624160
v -1.194734 3.206632 0.683982
v -1.194734 3.206632 -0.702040
v -0.746127 4.884357 0.612995
v -0.746127 4.884357 -0.604040
v -1.290114 0.310167 -0.624160
v -1.290114 0.310167 0.624160
v -0.640621 0.310167 0.844591
v -0.640621 0.310167 -0.801862
v -1.194734 4.397810 -0.702040
v -1.194734 4.397810 0.683982
vn -0.2565 -0.3115 -0.9150
vn -0.0000 -0.0000 1.0000
vn -1.0000 -0.0000 -0.0000
vn -0.0000 1.0000 -0.0000
vn 0.9975 0.0701 -0.0000
vn -0.0000 -0.0000 -1.0000
vn 0.9801 0.1983 -0.0000
vn -0.0000 0.1581 -0.9874
vn -0.0000 -0.1445 -0.9895
vn -0.0000 -0.2974 0.9548
vn -0.8744 -0.4852 -0.0000
vn -0.0000 -1.0000 -0.0000
vn -0.0000 0.0490 0.9988
vn -0.9982 -0.0600 -0.0000
vn 0.9999 -0.0127 -0.0000
vn -0.2636 0.2153 -0.9403
vn 0.3101 -0.2623 0.9138
vn 0.8943 -0.4475 -0.0000
vn 1.0000 -0.0000 -0.0000
vn 0.4484 -0.0000 0.8938
vn 0.8838 0.4679 -0.0000
vn 0.3222 0.0229 -0.9464
vn 0.5297 0.8482 -0.0000
vn -0.0000 -0.2240 -0.9746
vn -0.9756 -0.2196 -0.0000
vn 0.3335 -0.1187 -0.9352
vn -0.0000 -0.0375 0.9993
vn 0.9753 -0.2210 -0.0000
vn -0.0000 0.1456 0.9893
vn -0.9917 0.1285 -0.0000
vn -0.0000 -0.2056 0.9786
vn 0.3486 -0.0000 -0.9373
vn 0.2742 -0.3952 -0.8767
vn 0.2517 -0.5294 -0.8102
vn -0.0000 0.5778 -0.8162
vn -0.0000 0.6598 0.7514
vn 0.7352 0.6779 -0.0000
vn -0.0000 -0.9018 0.4321
vn 0.6487 -0.7610 -0.0000
vn 0.2689 0.4223 -0.8657
vn -0.0000 0.7626 0.6469
vn 0.2636 -0.0501 -0.9633
vn 0.9824 -0.1867 -0.0000
vn -0.0000 -0.1670 -0.9860
vn 0.3877 -0.0000 0.9218
vn 0.2966 -0.0000 -0.9550
vn -0.9975 0.0701 -0.0000
vn -0.9801 0.1983 -0.0000
vn 0.8744 -0.4852 -0.0000
vn 0.9982 -0.0600 -0.0000
vn -0.9999 -0.0127 -0.0000
vn 0.2636 0.2153 -0.9403
vn -0.3101 -0.2623 0.9138
vn -0.8943 -0.4475 -0.0000
vn -0.4484 -0.0000 0.8938
vn -0.8838 0.4679 -0.0000
vn -0.3416 -0.0000 -0.9399
vn -0.5297 0.8482 -0.0000
vn 0.9756 -0.2196 -0.0000
vn -0.3335 -0.1187 -0.9352
vn -0.3658 -0.1544 0.9178
vn -0.9753 -0.2210 -0.0000
vn 0.9917 0.1285 -0.0000
vn -0.3486 -0.0000 -0.9373
vn -0.2407 -0.4101 -0.8797
vn -0.0000 -0.8575 -0.5145
vn -0.7352 0.6779 -0.0000
vn -0.6487 -0.7610 -0.0000
vn -0.2689 0.4223 -0.8657
vn -0.3479 0.4414 0.8271
vn -0.9824 -0.1867 -0.0000
vn -0.3877 -0.0000 0.9218
vn -0.2966 -0.0000 -0.9550
vn 0.4166 -0.2084 0.8849
vn 0.3641 -0.3830 0.8489
vn 0.3416 -0.0000 -0.9399
vn -0.0000 -0.0101 -0.9999
vn 0.3658 -0.1544 0.9178
vn 0.0890 0.2223 -0.9709
vn 0.2407 -0.4101 -0.8797
vn 0.3237 -0.5506 0.7695
vn -0.0000 0.6941 -0.7199
vn 0.3479 0.4414 0.8271
vn 0.3208 -0.0610 0.9452
vn 0.2565 -0.3115 -0.9150
vn -0.4166 -0.2084 0.8849
vn -0.3641 -0.3830 0.8489
vn -0.3222 0.0229 -0.9464
vn -0.0890 0.2223 -0.9709
vn -0.2742 -0.3952 -0.8767
vn -0.2517 -0.5294 -0.8102
vn -0.3237 -0.5506 0.7695
vn -0.2636 -0.0501 -0.9633
vn -0.3208 -0.0610 0.9452
s 0
f 72//1 24//1 52//1
f 42//2 8//2 43//2
f 7//3 6//3 8//3
f 43//4 10//4 46//4
f 2//5 3//5 4//5
f 41//6 1//6 2//6
f 11//7 16//7 15//7
f 8//4 9//4 10//4
f 2//4 12//4 11//4
f 41//4 11//4 45//4
f 47//8 19//8 49//8
f 11//9 47//9 45//9
f 46//10 14//10 48//10
f 9//11 14//11 10//11
f 19//12 50//12 49//12
f 48//13 18//13 50//13
f 13//14 18//14 14//14
f 15//15 20//15 19//15
f 24//16 54//16 52//16
f 69//17 51//17 71//17
f 70//3 24//3 67//3
f 68//18 21//18 69//18
f 54//19 55//19 53//19
f 21//2 32//2 25//2
f 22//3 28//3 24//3
f 51//20 25//20 53//20
f 30//21 31//21 32//21
f 29//19 36//19 35//19
f 23//22 31//22 29//22
f 25//23 31//23 27//23
f 33//24 39//24 37//24
f 23//25 34//25 21//25
f 29//26 33//26 23//26
f 30//27 34//27 36//27
f 37//12 40//12 38//12
f 36//28 39//28 35//28
f 34//29 40//29 36//29
f 34//30 37//30 38//30
f 51//2 26//2 22//2
f 54//4 25//4 27//4
f 71//31 22//31 70//31
f 52//32 27//32 23//32
f 48//13 20//13 16//13
f 49//12 18//12 17//12
f 12//10 48//10 16//10
f 45//9 13//9 9//9
f 47//8 17//8 13//8
f 6//4 45//4 9//4
f 6//6 44//6 41//6
f 4//4 46//4 12//4
f 3//2 43//2 4//2
f 68//33 52//33 23//33
f 58//34 61//34 62//34
f 28//35 58//35 54//35
f 28//3 56//3 57//3
f 53//36 56//36 26//36
f 74//37 66//37 63//37
f 55//38 60//38 56//38
f 58//39 59//39 55//39
f 56//3 61//3 57//3
f 65//4 63//4 66//4
f 76//3 64//3 65//3
f 76//40 66//40 73//40
f 75//41 63//41 64//41
f 1//42 72//42 68//42
f 42//31 70//31 7//31
f 1//43 69//43 3//43
f 7//3 67//3 5//3
f 3//31 71//31 42//31
f 44//44 67//44 72//44
f 59//45 75//45 60//45
f 61//46 73//46 62//46
f 60//3 76//3 61//3
f 62//19 74//19 59//19
f 130//44 24//44 67//44
f 8//2 108//2 109//2
f 109//4 10//4 8//4
f 78//47 79//47 77//47
f 107//6 77//6 110//6
f 81//48 86//48 82//48
f 78//4 82//4 80//4
f 107//4 81//4 78//4
f 113//8 89//8 85//8
f 113//9 81//9 111//9
f 112//10 84//10 10//10
f 84//49 9//49 10//49
f 116//12 89//12 115//12
f 114//13 88//13 84//13
f 88//50 83//50 84//50
f 85//51 90//51 86//51
f 120//52 24//52 118//52
f 117//53 128//53 129//53
f 91//54 127//54 128//54
f 121//3 120//3 119//3
f 98//2 91//2 93//2
f 117//55 93//55 91//55
f 96//56 97//56 95//56
f 95//3 102//3 96//3
f 92//57 97//57 94//57
f 97//58 93//58 94//58
f 99//24 105//24 101//24
f 100//59 92//59 91//59
f 99//60 95//60 92//60
f 96//61 100//61 91//61
f 106//12 103//12 104//12
f 105//62 102//62 101//62
f 106//29 100//29 102//29
f 100//63 103//63 99//63
f 26//2 117//2 22//2
f 93//4 120//4 94//4
f 22//31 129//31 70//31
f 94//64 118//64 92//64
f 90//13 114//13 86//13
f 88//12 115//12 87//12
f 82//10 114//10 112//10
f 83//9 111//9 9//9
f 87//8 113//8 83//8
f 6//4 111//4 107//4
f 6//6 110//6 5//6
f 80//4 112//4 109//4
f 109//2 79//2 80//2
f 127//65 118//65 130//65
f 122//66 61//66 57//66
f 122//35 28//35 120//35
f 56//36 119//36 26//36
f 132//67 126//67 131//67
f 60//38 121//38 56//38
f 123//68 122//68 121//68
f 125//4 65//4 126//4
f 126//69 76//69 131//69
f 75//70 125//70 132//70
f 77//44 130//44 110//44
f 70//31 108//31 7//31
f 128//71 77//71 79//71
f 129//31 79//31 108//31
f 110//44 67//44 5//44
f 75//72 123//72 60//72
f 131//73 61//73 124//73
f 132//3 124//3 123//3
f 72//44 67//44 24//44
f 42//2 7//2 8//2
f 7//3 5//3 6//3
f 43//4 8//4 10//4
f 2//5 1//5 3//5
f 41//6 44//6 1//6
f 11//7 12//7 16//7
f 8//4 6//4 9//4
f 2//4 4//4 12//4
f 41//4 2//4 11//4
f 47//8 15//8 19//8
f 11//9 15//9 47//9
f 46//10 10//10 14//10
f 9//11 13//11 14//11
f 19//12 20//12 50//12
f 48//13 14//13 18//13
f 13//14 17//14 18//14
f 15//15 16//15 20//15
f 24//6 28//6 54//6
f 69//74 21//74 51//74
f 70//3 22//3 24//3
f 68//18 23//18 21//18
f 54//19 58//19 55//19
f 21//75 30//75 32//75
f 22//3 26//3 28//3
f 51//20 21//20 25//20
f 30//21 29//21 31//21
f 29//19 30//19 36//19
f 23//76 27//76 31//76
f 25//23 32//23 31//23
f 33//24 35//24 39//24
f 23//25 33//25 34//25
f 29//77 35//77 33//77
f 30//78 21//78 34//78
f 37//12 39//12 40//12
f 36//28 40//28 39//28
f 34//29 38//29 40//29
f 34//30 33//30 37//30
f 51//2 53//2 26//2
f 54//4 53//4 25//4
f 71//31 51//31 22//31
f 52//79 54//79 27//79
f 48//13 50//13 20//13
f 49//12 50//12 18//12
f 12//10 46//10 48//10
f 45//9 47//9 13//9
f 47//8 49//8 17//8
f 6//4 41//4 45//4
f 6//6 5//6 44//6
f 4//4 43//4 46//4
f 3//2 42//2 43//2
f 68//80 72//80 52//80
f 58//66 57//66 61//66
f 28//35 57//35 58//35
f 28//3 26//3 56//3
f 53//36 55//36 56//36
f 74//37 73//37 66//37
f 55//81 59//81 60//81
f 58//39 62//39 59//39
f 56//3 60//3 61//3
f 65//4 64//4 63//4
f 76//3 75//3 64//3
f 76//82 65//82 66//82
f 75//83 74//83 63//83
f 1//44 44//44 72//44
f 42//31 71//31 70//31
f 1//43 68//43 69//43
f 7//3 70//3 67//3
f 3//84 69//84 71//84
f 44//44 5//44 67//44
f 59//45 74//45 75//45
f 61//46 76//46 73//46
f 60//3 75//3 76//3
f 62//19 73//19 74//19
f 130//85 118//85 24//85
f 8//2 7//2 108//2
f 109//4 112//4 10//4
f 78//47 80//47 79//47
f 107//6 78//6 77//6
f 81//48 85//48 86//48
f 78//4 81//4 82//4
f 107//4 111//4 81//4
f 113//8 115//8 89//8
f 113//9 85//9 81//9
f 112//10 114//10 84//10
f 84//49 83//49 9//49
f 116//12 90//12 89//12
f 114//13 116//13 88//13
f 88//50 87//50 83//50
f 85//51 89//51 90//51
f 120//6 28//6 24//6
f 117//86 91//86 128//86
f 91//54 92//54 127//54
f 121//3 122//3 120//3
f 98//87 96//87 91//87
f 117//55 119//55 93//55
f 96//56 98//56 97//56
f 95//3 101//3 102//3
f 92//88 95//88 97//88
f 97//58 98//58 93//58
f 99//24 103//24 105//24
f 100//59 99//59 92//59
f 99//77 101//77 95//77
f 96//27 102//27 100//27
f 106//12 105//12 103//12
f 105//62 106//62 102//62
f 106//29 104//29 100//29
f 100//63 104//63 103//63
f 26//2 119//2 117//2
f 93//4 119//4 120//4
f 22//31 117//31 129//31
f 94//89 120//89 118//89
f 90//13 116//13 114//13
f 88//12 116//12 115//12
f 82//10 86//10 114//10
f 83//9 113//9 111//9
f 87//8 115//8 113//8
f 6//4 9//4 111//4
f 6//6 107//6 110//6
f 80//4 82//4 112//4
f 109//2 108//2 79//2
f 127//90 92//90 118//90
f 122//91 124//91 61//91
f 122//35 57//35 28//35
f 56//36 121//36 119//36
f 132//67 125//67 126//67
f 60//92 123//92 121//92
f 123//68 124//68 122//68
f 125//4 64//4 65//4
f 126//82 65//82 76//82
f 75//41 64//41 125//41
f 77//93 127//93 130//93
f 70//31 129//31 108//31
f 128//71 127//71 77//71
f 129//94 128//94 79//94
f 110//44 130//44 67//44
f 75//72 132//72 123//72
f 131//73 76//73 61//73
f 132//3 131//3 124//3
